<svg version="1.1" id="Layer_1" xmlns="http://www.w3.org/2000/svg" xmlns:xlink="http://www.w3.org/1999/xlink" x="0px" y="0px"
	 width="100%" viewBox="0 0 750 450" enable-background="new 0 0 750 450" xml:space="preserve">
<path fill="#FFFFFF" opacity="1.000000" stroke="none" 
	d="
M1.000000,175.000000 
	C1.000000,117.026108 1.000000,59.052208 1.000000,1.041953 
	C251.000000,1.041953 501.000000,1.041953 751.000000,1.041953 
	C751.000000,11.412596 751.000000,21.741287 750.650757,32.425835 
	C748.795776,28.201679 745.305420,26.313852 740.924133,27.165646 
	C736.939392,27.940323 734.508118,31.237135 734.177979,35.166077 
	C733.799194,39.673794 737.212402,42.885742 741.919434,43.389866 
	C746.289551,43.857891 748.763367,41.128017 751.000000,38.000000 
	C751.000000,175.625473 751.000000,313.250946 751.000000,450.938202 
	C501.116028,450.938202 251.232040,450.938202 1.000000,450.938202 
	C1.000000,359.643646 1.000000,268.286835 1.460889,176.465012 
	C19.681921,177.001587 37.446587,177.930725 55.200069,179.039001 
	C62.720989,179.508499 70.230942,180.239365 77.723595,181.055878 
	C88.916832,182.275650 100.085152,183.722290 111.273849,184.985794 
	C120.856888,186.067993 130.487793,186.782013 140.035904,188.103928 
	C152.581100,189.840805 165.083282,191.911438 177.572021,194.027069 
	C191.313950,196.354996 205.110092,198.481537 218.719315,201.445541 
	C237.792511,205.599609 256.782623,210.183640 275.685120,215.061050 
	C301.304474,221.671570 326.298370,230.167236 350.189453,241.663910 
	C357.159515,245.017975 364.018219,248.603348 371.031189,252.360229 
	C371.669342,252.668121 372.204254,252.698502 372.739166,252.728882 
	C372.414185,252.287979 372.089203,251.847076 371.544495,251.148102 
	C365.873016,244.743164 360.205658,238.771423 355.031738,232.399048 
	C350.092926,226.316223 346.303497,219.688293 350.753510,211.388382 
	C349.818359,210.953247 348.858276,210.243927 347.804932,210.055191 
	C327.072021,206.339996 306.366455,202.449554 285.575470,199.088287 
	C266.958801,196.078552 248.250443,193.631790 229.573837,190.998306 
	C210.399155,188.294586 191.242477,185.432968 172.024628,183.074875 
	C155.636871,181.064026 139.189011,179.491898 122.738884,178.056137 
	C108.336861,176.799149 93.902565,175.862686 79.467636,175.048584 
	C69.233337,174.471375 58.972969,174.028214 48.726498,174.070648 
	C32.816654,174.136520 16.908735,174.666672 1.000000,175.000000 
M42.496635,25.000000 
	C34.069447,25.000000 25.642258,25.000000 17.000000,25.000000 
	C17.000000,45.078796 16.762604,64.552673 17.086040,84.017235 
	C17.291096,96.357307 17.695982,108.759071 19.152340,120.997391 
	C21.112007,137.465210 30.310465,149.361954 45.009422,157.003021 
	C58.040794,163.777206 72.337814,165.405930 86.558090,165.744934 
	C97.777931,166.012421 109.275658,165.073898 120.259766,162.792404 
	C151.462204,156.311371 165.060760,135.234833 165.859207,105.765999 
	C166.540268,80.630013 166.000000,55.460930 166.000000,30.306488 
	C166.000000,28.563534 166.000000,26.820580 166.000000,25.211763 
	C151.969681,25.211763 138.691208,25.211763 125.000000,25.211763 
	C125.000000,27.038212 125.000000,28.659756 125.000000,30.281298 
	C125.000000,52.770370 125.056351,75.259689 124.954521,97.748306 
	C124.933037,102.494446 124.794456,107.327148 123.900261,111.963844 
	C122.120003,121.195076 117.839561,128.843430 108.770348,133.063828 
	C99.685425,137.291534 90.396347,137.632431 80.791634,135.385803 
	C74.826469,133.990509 69.881401,131.232330 65.796013,126.535400 
	C59.728371,119.559525 58.181751,111.150330 58.089123,102.505928 
	C57.832108,78.520340 58.000000,54.530193 58.000000,30.541849 
	C58.000000,28.776196 58.000000,27.010542 58.000000,25.000000 
	C52.776791,25.000000 48.135975,25.000000 42.496635,25.000000 
M700.510498,25.000000 
	C696.410706,25.000000 692.310913,25.000000 687.755615,25.000000 
	C687.755615,42.595760 687.755615,59.589172 687.755615,76.660179 
	C684.334534,74.280235 681.403503,71.937195 678.197937,70.063934 
	C664.493713,62.055481 649.677429,61.656235 634.505615,63.991238 
	C620.285095,66.179848 609.100708,73.055122 601.223389,85.244118 
	C593.886841,96.596413 592.970154,109.299591 594.220215,122.068001 
	C595.312561,133.225739 599.705566,143.723068 608.078979,151.332153 
	C623.128967,165.008438 641.369751,168.223801 660.926575,164.515625 
	C671.931641,162.428970 681.356323,157.150848 688.553040,148.113235 
	C689.130859,152.992844 689.657471,157.440063 690.155518,161.645721 
	C702.440491,161.645721 714.179077,161.645721 725.212646,161.645721 
	C725.212646,115.953522 725.212646,70.605835 725.212646,25.000000 
	C716.787964,25.000000 709.148010,25.000000 700.510498,25.000000 
M538.399597,141.066864 
	C520.703857,151.164673 503.003143,143.468979 499.487244,123.788513 
	C527.961060,123.788513 556.366699,123.788513 585.435242,123.788513 
	C584.933289,117.642426 584.811157,111.877625 583.938354,106.228821 
	C580.819214,86.043022 570.398804,72.059647 550.955872,66.230156 
	C534.423157,61.273212 517.192871,61.149326 500.364044,65.152100 
	C484.732666,68.870049 471.986298,77.252228 465.255493,92.531403 
	C460.465210,103.405464 460.159637,114.845657 461.875641,126.603661 
	C463.865112,140.235077 470.914642,149.946579 482.478790,156.850464 
	C493.698822,163.548889 506.278961,165.303421 518.861938,165.788467 
	C528.820251,166.172333 538.938904,165.276871 548.830688,163.861496 
	C565.577026,161.465378 577.437317,152.475235 582.624084,135.832657 
	C582.974731,134.707748 582.792175,133.416672 582.868530,132.000000 
	C571.905151,132.000000 561.422241,132.102646 550.943176,131.949829 
	C546.707825,131.888046 542.819580,131.623810 541.830139,137.222565 
	C541.610596,138.464905 539.954590,139.453369 538.399597,141.066864 
M270.352905,63.999424 
	C249.315659,60.423923 230.349457,63.759583 215.485550,81.242271 
	C214.890930,75.710655 214.377884,70.938004 213.881699,66.322128 
	C201.616791,66.322128 189.868835,66.322128 178.769623,66.322128 
	C178.769623,98.330513 178.769623,130.018005 178.769623,161.710846 
	C191.608841,161.710846 203.676254,161.710846 216.000000,161.710846 
	C216.000000,147.614929 215.848709,133.803970 216.091858,119.999954 
	C216.165146,115.839066 216.844696,111.544365 218.086716,107.573784 
	C223.218567,91.168015 237.478912,85.157303 251.192001,88.961334 
	C260.425201,91.522636 265.804230,100.274353 265.943939,111.248047 
	C266.157593,128.030014 266.000000,144.816696 266.000000,161.762100 
	C278.504181,161.762100 290.570923,161.762100 303.000000,161.762100 
	C303.000000,148.565689 303.124420,135.602890 302.958405,122.643791 
	C302.837769,113.227539 302.914703,103.748306 301.825897,94.422974 
	C300.856354,86.118568 297.161835,78.433121 289.953430,73.679207 
	C284.120148,69.832184 277.496674,67.183365 270.352905,63.999424 
M425.000031,93.662415 
	C424.608185,91.033592 425.348541,89.856850 428.390808,89.925972 
	C437.488434,90.132675 446.593750,90.000267 455.722778,90.000267 
	C455.722778,81.741096 455.722778,74.010010 455.722778,65.852081 
	C445.383057,65.852081 435.313538,65.852081 424.887848,65.852081 
	C424.887848,55.005207 424.887848,44.585209 424.887848,33.396454 
	C412.838409,37.743622 401.330383,41.810486 389.928925,46.156906 
	C388.928436,46.538330 388.142639,48.732449 388.086121,50.118416 
	C387.872253,55.363911 388.000122,60.623329 388.000122,66.285294 
	C379.907684,66.285294 372.502350,66.285294 365.374420,66.285294 
	C365.374420,74.458199 365.374420,82.193703 365.374420,90.167389 
	C373.029846,90.167389 380.312225,90.167389 388.000000,90.167389 
	C388.000000,104.866920 387.723724,119.319397 388.082001,133.756134 
	C388.404236,146.739197 394.833313,156.578842 406.926697,160.762909 
	C422.899353,166.289139 439.428314,164.684586 456.000000,161.974319 
	C456.000000,157.619675 456.000000,153.803528 456.000000,149.987381 
	C456.000000,146.037323 456.000000,142.087265 456.000000,138.176056 
	C450.876648,138.471771 446.301270,138.746658 441.724609,138.997894 
	C429.358490,139.676773 425.453156,134.044327 425.059998,122.111458 
	C424.758514,112.960571 425.000000,103.791786 425.000031,93.662415 
M560.418274,183.000000 
	C545.593567,183.000000 530.767822,182.894241 515.944702,183.046707 
	C509.022400,183.117905 502.074615,183.390106 495.192139,184.095596 
	C481.070099,185.543152 466.970367,187.235168 452.888458,189.037781 
	C443.377808,190.255219 433.809479,191.348328 424.449646,193.350937 
	C404.566132,197.605194 384.805054,202.430557 364.986877,206.991943 
	C358.389496,208.510406 356.934631,210.284042 357.000031,217.033646 
	C357.047699,221.957245 358.346069,222.954910 362.977722,221.539307 
	C398.579712,210.657883 435.067017,204.069153 471.995239,200.175934 
	C490.817505,198.191605 509.820068,197.732025 528.758423,197.112839 
	C538.322144,196.800156 547.935364,197.481201 557.506775,198.043671 
	C571.610413,198.872467 585.747314,199.544067 599.777161,201.113388 
	C616.092529,202.938339 632.478210,204.841080 648.525879,208.185730 
	C672.198914,213.119644 695.647461,219.171890 719.091248,225.141754 
	C727.081055,227.176315 734.768066,230.399826 743.155273,233.272491 
	C743.155273,228.871460 742.551697,225.081848 743.353699,221.617645 
	C743.953064,219.028809 743.458069,218.624924 741.305115,217.933426 
	C734.571106,215.770508 728.010742,213.025391 721.212585,211.111511 
	C702.754211,205.914963 684.382568,200.203354 665.648315,196.251480 
	C646.447998,192.201248 626.909180,189.600815 607.423767,187.106277 
	C592.155334,185.151581 576.742188,184.326782 560.418274,183.000000 
M92.272926,290.964996 
	C92.660721,290.657898 93.010986,290.278717 93.441887,290.054474 
	C101.650429,285.782440 103.187202,278.395813 101.868057,270.319641 
	C100.553894,262.273987 94.705116,258.333191 87.050568,257.004944 
	C82.096069,256.145233 77.085716,255.177399 72.085884,255.090286 
	C57.495735,254.836166 42.898304,255.000000 28.262901,255.000000 
	C28.262901,280.249359 28.262901,304.968842 28.262901,329.723724 
	C35.925312,329.723724 43.322292,329.723724 51.144859,329.723724 
	C51.144859,320.385498 51.144859,311.315826 51.144859,302.001038 
	C56.878227,302.001038 62.247429,301.483734 67.469536,302.138885 
	C73.308098,302.871368 76.668549,302.711853 78.043388,311.076782 
	C79.079880,317.383087 80.121773,323.688507 81.100540,329.625977 
	C89.500664,329.625977 97.203346,329.625977 104.961006,329.625977 
	C104.259377,325.924744 103.628281,322.598114 102.998207,319.271240 
	C101.944221,313.706146 101.240967,308.044342 99.740089,302.602509 
	C98.199219,297.015686 94.131287,293.675995 86.747162,293.271454 
	C89.354698,292.063141 90.441246,291.559631 92.272926,290.964996 
M391.475952,314.000000 
	C380.717133,314.000000 369.958313,314.000000 359.330261,314.000000 
	C359.330261,308.971161 359.330261,304.570587 359.330261,299.745605 
	C372.726746,299.745605 385.795868,299.745605 398.637238,299.745605 
	C398.637238,294.234070 398.637238,289.162140 398.637238,283.680237 
	C385.207916,283.680237 372.139191,283.680237 359.217224,283.680237 
	C359.217224,279.293488 359.217224,275.342194 359.217224,270.969147 
	C373.163177,270.969147 386.898560,270.969147 400.749969,270.969147 
	C400.749969,265.466766 400.749969,260.400818 400.749969,255.261993 
	C379.437164,255.261993 358.375397,255.261993 337.272400,255.261993 
	C337.272400,280.252441 337.272400,304.979919 337.272400,329.716248 
	C358.941559,329.716248 380.337006,329.716248 401.698181,329.716248 
	C401.698181,324.359924 401.698181,319.294220 401.698181,314.000000 
	C398.420593,314.000000 395.442749,314.000000 391.475952,314.000000 
M353.000000,84.500557 
	C353.000000,78.406822 353.000000,72.313080 353.000000,66.311142 
	C340.332062,66.311142 328.271088,66.311142 316.302185,66.311142 
	C316.302185,98.337975 316.302185,130.052780 316.302185,161.688995 
	C328.667786,161.688995 340.728699,161.688995 353.000000,161.688995 
	C353.000000,136.085861 353.000000,110.793144 353.000000,84.500557 
M226.324402,326.958496 
	C227.415314,326.061188 228.506226,325.163879 229.886353,324.028687 
	C229.989670,326.291870 230.069031,328.030457 230.145554,329.706879 
	C236.927109,329.706879 243.341187,329.706879 249.998901,329.706879 
	C249.998901,318.106842 250.546921,306.758240 249.726517,295.509460 
	C249.402847,291.071472 246.606155,286.444702 243.898346,282.642609 
	C240.465317,277.822235 234.578232,277.059174 229.061050,276.558746 
	C217.452530,275.505798 205.827560,274.667816 195.138077,280.970886 
	C190.176025,283.896759 187.725586,288.523438 188.565720,293.878082 
	C195.186264,293.878082 201.826370,293.878082 208.435226,293.878082 
	C210.453766,288.329071 214.868973,286.395081 223.268585,288.103668 
	C227.509857,288.966370 229.021866,292.441284 228.998627,297.000000 
	C226.141724,297.000000 223.496170,297.015045 220.850830,296.997253 
	C211.838104,296.936646 202.863663,296.691010 194.155197,299.958557 
	C184.059982,303.746429 180.543472,317.635651 187.956512,325.437408 
	C195.951462,333.851562 215.841904,334.706299 226.324402,326.958496 
M536.063904,301.424377 
	C530.126465,304.270508 528.116455,309.908417 528.249146,315.527557 
	C528.408569,322.281708 531.813782,327.903717 539.014648,330.028748 
	C551.467285,333.703644 563.343018,333.592957 573.888916,324.148651 
	C573.988525,326.291534 574.069092,328.026794 574.160645,329.996674 
	C580.639465,329.996674 586.786987,330.005463 592.934326,329.983704 
	C593.577332,329.981415 594.219666,329.798279 594.601257,329.739380 
	C594.390991,327.319214 594.044006,325.069733 594.026794,322.817688 
	C593.960571,314.156464 593.789795,305.487915 594.056396,296.834381 
	C594.349548,287.320282 589.267395,280.673248 580.438110,278.039856 
	C569.507751,274.779724 558.314636,275.027832 547.354187,277.406281 
	C537.266663,279.595306 532.219604,285.663422 532.235046,293.811951 
	C539.028564,293.811951 545.824585,293.811951 552.601746,293.811951 
	C555.354858,288.295074 561.775146,285.935516 568.490662,288.220306 
	C572.554504,289.602936 573.536194,292.773438 572.704163,297.000000 
	C568.026367,297.000000 563.541443,297.122375 559.065674,296.972870 
	C551.311890,296.713959 543.761902,297.383179 536.063904,301.424377 
M158.094910,314.001404 
	C157.174118,314.712097 156.110413,315.297394 155.357590,316.155457 
	C152.279526,319.663910 145.238113,321.732941 140.466461,319.747620 
	C136.065475,317.916534 133.169815,314.513092 133.108871,308.795715 
	C148.487915,308.795715 163.706345,308.795715 179.000000,308.795715 
	C179.000000,306.116974 179.141037,303.943481 178.975937,301.793518 
	C178.202240,291.718658 172.351212,279.858978 159.884521,278.025085 
	C152.796555,276.982452 145.507095,275.612335 138.482819,276.265594 
	C129.785904,277.074402 121.773224,280.365997 116.151833,288.162720 
	C111.485939,294.634155 111.979553,301.698029 112.008240,308.862915 
	C112.044876,318.014679 118.066078,325.892639 126.759781,329.063507 
	C138.413208,333.313812 150.333115,332.885681 162.113907,330.774780 
	C171.298019,329.129150 177.634857,321.237274 177.815842,314.000092 
	C171.537750,314.000092 165.260422,314.000092 158.094910,314.001404 
M687.556641,276.000000 
	C683.979004,276.334229 680.258545,276.157715 676.853821,277.110138 
	C669.989563,279.030334 663.588623,281.672455 659.195374,288.111877 
	C654.768677,294.600342 654.952698,301.628937 655.000610,308.813171 
	C655.060303,317.757935 661.315247,325.979950 669.821411,329.067230 
	C681.483337,333.299988 693.414551,332.940735 705.190857,330.730225 
	C713.822998,329.109924 720.745056,322.054260 720.783691,314.176453 
	C713.654175,314.176453 706.523560,314.176453 699.418640,314.176453 
	C696.521118,319.831390 692.591553,321.348206 684.468994,319.989044 
	C680.252869,319.283569 676.872070,314.906647 676.174438,308.808563 
	C691.456726,308.808563 706.686951,308.808563 722.000000,308.808563 
	C722.000000,306.459991 722.073120,304.626495 721.987915,302.800354 
	C721.499268,292.326935 717.586487,283.471527 707.514709,279.463043 
	C701.651978,277.129700 694.881104,277.078186 687.556641,276.000000 
M417.338104,326.042877 
	C418.835541,327.021729 420.211792,328.337585 421.849457,328.926422 
	C435.758118,333.927521 449.806213,333.270050 463.531921,328.623169 
	C470.155670,326.380676 473.502014,319.403259 472.998962,312.435791 
	C472.537964,306.050598 468.468140,301.164642 461.794006,299.369812 
	C459.139862,298.656067 456.340485,298.499786 453.626617,297.987030 
	C448.552704,297.028412 443.439331,296.195068 438.462372,294.861694 
	C437.095673,294.495544 436.154694,292.540283 435.018372,291.314178 
	C436.316803,290.231812 437.454437,288.598999 438.942139,288.164337 
	C444.765900,286.462738 448.491882,288.274445 451.571167,293.680298 
	C458.394806,293.680298 465.117493,293.680298 471.585754,293.680298 
	C471.357239,284.915161 467.237122,279.173004 458.863800,277.439636 
	C446.858673,274.954407 434.755981,274.703339 423.093231,279.087433 
	C412.085693,283.225220 410.792023,298.985748 418.625641,303.957367 
	C421.540405,305.807220 424.975861,307.082794 428.347961,307.913727 
	C434.926392,309.534729 441.632690,310.632935 448.276001,311.996338 
	C452.386200,312.839874 451.601410,315.983398 450.242462,318.052734 
	C447.583557,322.101379 435.965759,320.167480 433.861115,315.760345 
	C433.297943,314.581024 431.707855,313.174408 430.535400,313.124023 
	C424.412964,312.860931 418.273163,313.001282 410.688629,313.001282 
	C412.926666,317.916351 414.752502,321.926208 417.338104,326.042877 
M526.000000,284.496887 
	C526.000000,282.401855 526.000000,280.306824 526.000000,277.784302 
	C519.980652,277.784302 514.573975,277.784302 508.782776,277.784302 
	C508.782776,271.624756 508.782776,265.898407 508.782776,259.861664 
	C501.579529,262.505402 494.838013,264.979675 487.733154,267.587280 
	C487.733154,271.070312 487.733154,274.481354 487.733154,278.305420 
	C483.553741,278.305420 479.814148,278.305420 476.212433,278.305420 
	C476.212433,282.696899 476.212433,286.649872 476.212433,291.026672 
	C480.150574,291.026672 483.900665,291.026672 487.286255,291.026672 
	C487.724457,291.588928 487.909760,291.715729 487.910492,291.843567 
	C487.950165,298.675293 487.927551,305.507660 488.012726,312.338715 
	C488.104797,319.724335 490.545227,326.233063 497.876678,328.774109 
	C502.820770,330.487762 508.407013,330.813995 513.720947,330.906982 
	C528.900818,331.172638 525.653198,331.843506 525.961914,318.573090 
	C525.972229,318.130859 525.697449,317.682007 525.480286,316.999939 
	C522.472717,316.999939 519.487000,316.840149 516.524902,317.036469 
	C511.788086,317.350403 509.355164,314.773651 509.113159,310.558289 
	C508.744965,304.144501 509.016815,297.693970 509.016815,290.831665 
	C514.969482,290.831665 520.378906,290.831665 526.000000,290.831665 
	C526.000000,288.749786 526.000000,287.103790 526.000000,284.496887 
M648.274109,278.007568 
	C643.532532,278.007568 638.791016,278.007568 633.677124,278.007568 
	C633.677124,271.540894 633.677124,265.840057 633.677124,259.892914 
	C626.501038,262.530884 619.774597,265.003571 612.696655,267.605499 
	C612.696655,271.134216 612.696655,274.533142 612.696655,278.164673 
	C608.633728,278.164673 605.018005,278.164673 601.220581,278.164673 
	C601.220581,282.482269 601.220581,286.545624 601.220581,291.036377 
	C605.163330,291.036377 608.908569,291.036377 613.000000,291.036377 
	C613.000000,298.741089 612.813171,306.029877 613.050049,313.304932 
	C613.311646,321.340698 616.446899,327.471283 625.049194,329.843475 
	C629.067810,330.951691 633.470520,330.911530 637.703491,330.952911 
	C650.853760,331.081543 650.855408,330.999939 649.905273,317.771973 
	C649.896057,317.643982 649.692566,317.529877 649.196655,316.999512 
	C646.641418,316.999512 643.687195,316.960632 640.734497,317.009430 
	C637.080383,317.069733 634.377258,315.179047 634.154602,311.801819 
	C633.701233,304.924957 634.018921,297.997284 634.018921,290.686584 
	C639.793640,290.686584 644.865112,290.686584 650.384827,290.686584 
	C649.972107,286.177917 649.601501,282.128357 648.274109,278.007568 
M260.045319,388.721954 
	C260.879089,387.277466 261.712830,385.832977 263.291168,383.098480 
	C263.291168,395.033264 263.291168,405.454071 263.291168,415.640320 
	C266.747742,415.640320 269.816895,415.640320 272.627014,415.640320 
	C272.627014,401.879028 272.627014,388.479401 272.627014,375.000000 
	C268.090515,375.000000 263.918884,375.155212 259.765778,374.944916 
	C257.043335,374.807037 255.961990,375.781677 254.889526,378.361053 
	C251.047836,387.600739 246.744110,396.648315 242.136795,406.825043 
	C237.458389,396.650482 233.267090,387.415070 228.931992,378.247681 
	C228.338562,376.992798 227.086105,375.219696 226.040939,375.149811 
	C221.127792,374.821381 216.180481,375.003723 211.298126,375.003723 
	C211.298126,388.982697 211.298126,402.386383 211.298126,415.680664 
	C214.338501,415.680664 217.072449,415.680664 220.284332,415.680664 
	C220.284332,405.099884 220.284332,394.832458 220.284332,383.211456 
	C225.728653,394.920410 230.558578,405.308014 235.529816,415.999542 
	C238.616699,415.999542 241.969193,416.262390 245.245682,415.877747 
	C246.673035,415.710175 248.581177,414.520844 249.182877,413.271515 
	C252.959213,405.430542 256.428864,397.441895 260.045319,388.721954 
M274.487427,255.000000 
	C271.056854,255.000000 267.626251,255.000000 264.298828,255.000000 
	C264.298828,280.332520 264.298828,305.047150 264.298828,329.688965 
	C270.999176,329.688965 277.397064,329.688965 283.698486,329.688965 
	C283.698486,304.662231 283.698486,279.947632 283.698486,255.000000 
	C280.756500,255.000000 278.113983,255.000000 274.487427,255.000000 
M482.992584,412.395020 
	C482.661743,410.490234 481.921021,408.550537 482.079865,406.687500 
	C482.491150,401.863434 480.108978,398.797028 476.300537,396.384125 
	C483.083496,393.824249 483.524506,389.401093 482.858337,383.753723 
	C482.311859,379.121399 479.076447,376.239471 474.168243,375.995117 
	C463.530609,375.465546 452.887665,375.042236 442.302826,374.577911 
	C442.302826,389.010345 442.302826,402.402283 442.302826,415.680054 
	C445.682312,415.680054 448.748535,415.680054 452.225861,415.680054 
	C452.225861,410.292206 452.225861,405.221497 452.225861,400.001373 
	C455.638611,400.001373 458.632416,399.844910 461.604462,400.032532 
	C468.766327,400.484650 471.519928,402.739227 471.998383,408.252808 
	C472.673370,416.031128 472.673401,416.037811 480.297943,415.992615 
	C481.415436,415.985992 482.532349,415.880615 483.606598,415.823212 
	C483.378845,414.856018 483.190674,414.057037 482.992584,412.395020 
M354.992340,50.274323 
	C354.992340,41.871735 354.992340,33.469143 354.992340,25.375069 
	C340.857544,25.375069 327.467102,25.375069 314.205292,25.375069 
	C314.205292,34.359653 314.205292,42.968121 314.205292,52.000000 
	C326.175842,52.000000 337.945984,52.031170 349.715576,51.965904 
	C351.451599,51.956276 353.185120,51.489948 354.992340,50.274323 
M132.975128,402.994263 
	C132.996506,401.995728 132.845810,400.957550 133.065338,400.004669 
	C135.890396,387.742126 128.326248,376.636108 118.378036,376.010132 
	C109.385399,375.444275 100.382652,375.038940 91.247833,374.555634 
	C91.247833,388.876678 91.247833,402.267517 91.247833,416.000000 
	C98.448685,416.000000 105.412399,415.821564 112.363350,416.043365 
	C121.891708,416.347382 128.622223,412.309845 132.975128,402.994263 
M559.016663,425.976593 
	C562.654968,424.428375 565.816040,422.126007 565.918335,417.920593 
	C566.165710,407.750122 565.998657,397.569580 565.998657,386.801910 
	C559.457947,388.004456 552.445435,387.135468 545.313599,386.245605 
	C537.906616,385.321411 532.287903,390.714905 530.219421,398.450043 
	C528.705139,404.112671 531.541138,410.517914 537.610168,413.998108 
	C544.239990,417.799927 550.656128,416.316132 556.702332,412.399902 
	C558.287415,416.470825 555.477295,419.345428 552.729065,420.359253 
	C549.814026,421.434692 544.646240,421.670746 543.026611,419.911926 
	C539.476746,416.057007 535.985962,417.064758 532.191528,417.300049 
	C531.170776,422.030701 533.923767,425.310822 537.340637,425.738251 
	C544.192810,426.595490 551.226013,426.006317 559.016663,425.976593 
M171.576645,385.072876 
	C173.682678,391.842285 178.899338,388.045776 183.350311,388.412140 
	C182.451416,384.957031 181.639938,381.367645 179.437225,379.177460 
	C172.396286,372.176514 152.903931,372.198212 145.967270,379.301056 
	C139.987274,385.424438 139.162628,392.267487 139.902328,400.151672 
	C140.543518,406.985870 143.687393,411.960236 149.632309,414.778564 
	C157.360672,418.442444 165.545303,417.710297 173.604538,415.722382 
	C180.518311,414.017059 183.080353,408.860626 183.958710,402.161835 
	C180.398743,402.161835 177.092712,402.161835 173.767059,402.161835 
	C170.524063,409.948273 163.610092,411.617371 156.380005,408.193878 
	C150.749908,405.527985 147.595367,395.314453 151.448425,388.300507 
	C155.178497,381.510437 164.169800,379.284180 171.576645,385.072876 
M493.498840,391.001892 
	C492.240021,393.884338 490.469604,396.656982 489.822754,399.670746 
	C488.184967,407.301605 491.796661,414.795929 498.850037,415.899750 
	C504.312683,416.754639 510.079651,417.400726 515.450928,416.531097 
	C519.446838,415.884155 525.048035,414.828278 524.809204,407.100067 
	C520.395752,408.179108 516.226379,408.719208 512.445435,410.230804 
	C506.165436,412.741455 500.903076,410.475952 499.532623,403.761597 
	C508.366180,403.761597 517.132690,403.761597 526.024536,403.761597 
	C526.135376,397.234406 524.680542,391.296204 518.857178,388.594788 
	C510.542297,384.737579 501.914764,384.618835 493.498840,391.001892 
M284.712677,413.962860 
	C292.252747,418.761047 300.371857,417.641602 308.302612,415.715515 
	C311.610077,414.912231 315.508087,413.248718 314.609222,407.030823 
	C310.278229,408.151215 306.243530,408.995789 302.341156,410.251526 
	C296.591858,412.101532 289.941925,411.099976 289.784485,403.834869 
	C298.399139,403.834869 307.009766,403.834869 315.587494,403.834869 
	C316.750793,393.503265 313.208771,388.846832 301.509399,386.317535 
	C295.115479,384.935242 285.473755,387.225067 281.589111,392.965607 
	C278.360443,397.736816 279.690247,408.369232 284.712677,413.962860 
M379.315063,410.829529 
	C381.991516,412.586761 384.466919,415.243347 387.390076,415.896667 
	C392.125244,416.955048 397.176788,417.139893 402.053833,416.891205 
	C408.964355,416.538788 414.437164,410.741211 414.973938,403.854034 
	C415.450104,397.744568 412.998657,389.775604 405.117737,387.461273 
	C397.727020,385.290894 390.390717,385.057831 383.931641,388.897552 
	C377.720184,392.590027 374.832367,400.048706 379.315063,410.829529 
M591.966370,391.550354 
	C590.835815,394.327759 589.123535,397.017242 588.687927,399.899689 
	C587.552002,407.417206 590.876770,414.490692 597.172363,415.825348 
	C602.410034,416.935699 607.960388,417.090302 613.339661,416.870941 
	C618.973999,416.641205 624.672913,411.272705 625.934937,406.080688 
	C627.285278,400.525482 624.929565,391.713501 620.859985,389.469543 
	C612.927795,385.095734 600.401123,384.032074 591.966370,391.550354 
M665.000000,407.460693 
	C665.000000,404.465210 664.557434,401.389740 665.081787,398.489014 
	C666.758606,389.212250 656.260254,384.608551 648.847229,386.590912 
	C646.293396,387.273804 643.711792,388.537750 641.180847,388.449219 
	C637.960876,388.336578 634.779480,387.119537 631.791931,386.427399 
	C631.791931,396.876953 631.791931,406.329224 631.791931,415.693237 
	C635.320374,415.693237 638.051941,415.693237 641.000793,415.693237 
	C641.000793,410.749084 640.880554,406.105713 641.035339,401.471558 
	C641.183228,397.044891 645.474792,392.944000 649.595215,393.000977 
	C654.050232,393.062592 655.984802,395.622894 655.997864,401.507355 
	C656.008423,406.269714 656.000000,411.032135 656.000000,415.685608 
	C659.333679,415.685608 662.065186,415.685608 665.000000,415.685608 
	C665.000000,413.061951 665.000000,410.750946 665.000000,407.460693 
M341.462402,394.000000 
	C342.905457,393.922974 344.348511,393.845917 345.698242,393.773865 
	C345.698242,391.358063 345.698242,389.290558 345.698242,386.807739 
	C342.314697,386.807739 339.230316,386.807739 335.799438,386.807739 
	C335.799438,383.960724 335.799438,381.535492 335.799438,378.932434 
	C331.020844,380.011322 325.309448,379.359711 326.936096,387.186584 
	C324.004730,387.186584 321.592102,387.186584 319.321625,387.186584 
	C319.321625,389.687805 319.321625,391.758118 319.321625,393.846466 
	C322.048248,393.979950 324.454437,394.097778 327.000000,394.222412 
	C327.000000,399.170258 327.378448,403.697479 326.906189,408.134155 
	C326.286743,413.954071 329.676910,415.989380 335.050293,416.953308 
	C336.664856,417.242950 338.375214,417.013428 340.041473,416.997467 
	C346.003693,416.940338 346.294342,416.592224 345.617615,410.397583 
	C335.981750,409.289246 335.982117,409.289246 335.999603,399.032959 
	C336.002350,397.432098 336.000000,395.831238 336.000000,394.000000 
	C337.893402,394.000000 339.204193,394.000000 341.462402,394.000000 
M352.000000,392.783142 
	C352.000000,400.388977 352.000000,407.994812 352.000000,415.783386 
	C355.149811,415.783386 357.877258,415.783386 361.000061,415.783386 
	C361.000061,411.792938 360.799347,407.993469 361.052399,404.224487 
	C361.348480,399.814911 362.656006,395.820282 367.871002,395.012207 
	C370.433472,394.615143 373.050415,394.569672 375.786377,394.353760 
	C375.786377,392.222870 375.786377,389.801361 375.786377,386.405334 
	C371.346527,387.107178 367.236969,388.237000 363.118652,388.269836 
	C359.168030,388.301361 355.208344,387.195251 351.016907,386.552948 
	C351.473816,389.015320 351.736786,390.432556 352.000000,392.783142 
M574.000000,407.455139 
	C574.000000,410.225128 574.000000,412.995117 574.000000,415.708191 
	C577.295471,415.708191 580.024353,415.708191 582.719299,415.708191 
	C582.719299,406.025055 582.719299,396.636230 582.719299,387.293091 
	C579.699463,387.293091 576.970398,387.293091 574.000000,387.293091 
	C574.000000,393.876862 574.000000,400.170776 574.000000,407.455139 
M580.351074,375.000702 
	C577.933472,375.000702 575.515869,375.000702 573.354492,375.000702 
	C573.354492,378.091522 573.354492,380.492004 573.354492,382.646423 
	C576.783264,382.646423 579.850952,382.646423 583.988586,382.646423 
	C582.940125,379.683289 582.112793,377.345276 580.351074,375.000702 
z"/>
<path fill="#0F2D52" opacity="1.000000" stroke="none" 
	d="
M370.927979,252.082703 
	C364.018219,248.603348 357.159515,245.017975 350.189453,241.663910 
	C326.298370,230.167236 301.304474,221.671570 275.685120,215.061050 
	C256.782623,210.183640 237.792511,205.599609 218.719315,201.445541 
	C205.110092,198.481537 191.313950,196.354996 177.572021,194.027069 
	C165.083282,191.911438 152.581100,189.840805 140.035904,188.103928 
	C130.487793,186.782013 120.856888,186.067993 111.273849,184.985794 
	C100.085152,183.722290 88.916832,182.275650 77.723595,181.055878 
	C70.230942,180.239365 62.720989,179.508499 55.200069,179.039001 
	C37.446587,177.930725 19.681921,177.001587 1.460889,176.000000 
	C1.000000,176.000000 1.000000,175.500000 1.000000,175.250000 
	C16.908735,174.666672 32.816654,174.136520 48.726498,174.070648 
	C58.972969,174.028214 69.233337,174.471375 79.467636,175.048584 
	C93.902565,175.862686 108.336861,176.799149 122.738884,178.056137 
	C139.189011,179.491898 155.636871,181.064026 172.024628,183.074875 
	C191.242477,185.432968 210.399155,188.294586 229.573837,190.998306 
	C248.250443,193.631790 266.958801,196.078552 285.575470,199.088287 
	C306.366455,202.449554 327.072021,206.339996 347.804932,210.055191 
	C348.858276,210.243927 349.818359,210.953247 350.753510,211.388382 
	C346.303497,219.688293 350.092926,226.316223 355.031738,232.399048 
	C360.205658,238.771423 365.873016,244.743164 371.326935,251.306732 
	C371.195435,251.843201 371.061707,251.962952 370.927979,252.082703 
z"/>
<path fill="#0F2D52" opacity="1.000000" stroke="none" 
	d="
M751.000000,37.583336 
	C748.763367,41.128017 746.289551,43.857891 741.919434,43.389866 
	C737.212402,42.885742 733.799194,39.673794 734.177979,35.166077 
	C734.508118,31.237135 736.939392,27.940323 740.924133,27.165646 
	C745.305420,26.313852 748.795776,28.201679 750.650757,32.890846 
	C751.000000,34.388889 751.000000,35.777779 751.000000,37.583336 
z"/>
<path fill="#0F2D52" opacity="1.000000" stroke="none" 
	d="
M42.995895,25.000000 
	C48.135975,25.000000 52.776791,25.000000 58.000000,25.000000 
	C58.000000,27.010542 58.000000,28.776196 58.000000,30.541849 
	C58.000000,54.530193 57.832108,78.520340 58.089123,102.505928 
	C58.181751,111.150330 59.728371,119.559525 65.796013,126.535400 
	C69.881401,131.232330 74.826469,133.990509 80.791634,135.385803 
	C90.396347,137.632431 99.685425,137.291534 108.770348,133.063828 
	C117.839561,128.843430 122.120003,121.195076 123.900261,111.963844 
	C124.794456,107.327148 124.933037,102.494446 124.954521,97.748306 
	C125.056351,75.259689 125.000000,52.770370 125.000000,30.281298 
	C125.000000,28.659756 125.000000,27.038212 125.000000,25.211763 
	C138.691208,25.211763 151.969681,25.211763 166.000000,25.211763 
	C166.000000,26.820580 166.000000,28.563534 166.000000,30.306488 
	C166.000000,55.460930 166.540268,80.630013 165.859207,105.765999 
	C165.060760,135.234833 151.462204,156.311371 120.259766,162.792404 
	C109.275658,165.073898 97.777931,166.012421 86.558090,165.744934 
	C72.337814,165.405930 58.040794,163.777206 45.009422,157.003021 
	C30.310465,149.361954 21.112007,137.465210 19.152340,120.997391 
	C17.695982,108.759071 17.291096,96.357307 17.086040,84.017235 
	C16.762604,64.552673 17.000000,45.078796 17.000000,25.000000 
	C25.642258,25.000000 34.069447,25.000000 42.995895,25.000000 
z"/>
<path fill="#0F2D52" opacity="1.000000" stroke="none" 
	d="
M701.009277,25.000000 
	C709.148010,25.000000 716.787964,25.000000 725.212646,25.000000 
	C725.212646,70.605835 725.212646,115.953522 725.212646,161.645721 
	C714.179077,161.645721 702.440491,161.645721 690.155518,161.645721 
	C689.657471,157.440063 689.130859,152.992844 688.553040,148.113235 
	C681.356323,157.150848 671.931641,162.428970 660.926575,164.515625 
	C641.369751,168.223801 623.128967,165.008438 608.078979,151.332153 
	C599.705566,143.723068 595.312561,133.225739 594.220215,122.068001 
	C592.970154,109.299591 593.886841,96.596413 601.223389,85.244118 
	C609.100708,73.055122 620.285095,66.179848 634.505615,63.991238 
	C649.677429,61.656235 664.493713,62.055481 678.197937,70.063934 
	C681.403503,71.937195 684.334534,74.280235 687.755615,76.660179 
	C687.755615,59.589172 687.755615,42.595760 687.755615,25.000000 
	C692.310913,25.000000 696.410706,25.000000 701.009277,25.000000 
M634.000000,118.483765 
	C635.073792,128.633942 640.009827,136.630585 649.308777,140.514771 
	C659.427246,144.741287 669.579285,143.903976 678.333862,136.186188 
	C688.435364,127.281021 690.063171,116.384773 686.046082,104.091995 
	C682.350952,92.784760 675.044373,87.215240 662.846802,85.964249 
	C643.610229,83.991333 631.270630,100.141006 634.000000,118.483765 
z"/>
<path fill="#0F2D52" opacity="1.000000" stroke="none" 
	d="
M538.679810,140.812805 
	C539.954590,139.453369 541.610596,138.464905 541.830139,137.222565 
	C542.819580,131.623810 546.707825,131.888046 550.943176,131.949829 
	C561.422241,132.102646 571.905151,132.000000 582.868530,132.000000 
	C582.792175,133.416672 582.974731,134.707748 582.624084,135.832657 
	C577.437317,152.475235 565.577026,161.465378 548.830688,163.861496 
	C538.938904,165.276871 528.820251,166.172333 518.861938,165.788467 
	C506.278961,165.303421 493.698822,163.548889 482.478790,156.850464 
	C470.914642,149.946579 463.865112,140.235077 461.875641,126.603661 
	C460.159637,114.845657 460.465210,103.405464 465.255493,92.531403 
	C471.986298,77.252228 484.732666,68.870049 500.364044,65.152100 
	C517.192871,61.149326 534.423157,61.273212 550.955872,66.230156 
	C570.398804,72.059647 580.819214,86.043022 583.938354,106.228821 
	C584.811157,111.877625 584.933289,117.642426 585.435242,123.788513 
	C556.366699,123.788513 527.961060,123.788513 499.487244,123.788513 
	C503.003143,143.468979 520.703857,151.164673 538.679810,140.812805 
M543.972046,93.918442 
	C537.148926,82.944397 526.689270,81.673698 515.527039,84.152626 
	C506.133392,86.238785 501.761505,93.459641 500.125458,102.785889 
	C515.424255,102.785889 530.619629,102.785889 546.226440,102.785889 
	C545.438721,99.923660 544.722229,97.320129 543.972046,93.918442 
z"/>
<path fill="#0F2D52" opacity="1.000000" stroke="none" 
	d="
M270.788300,64.001236 
	C277.496674,67.183365 284.120148,69.832184 289.953430,73.679207 
	C297.161835,78.433121 300.856354,86.118568 301.825897,94.422974 
	C302.914703,103.748306 302.837769,113.227539 302.958405,122.643791 
	C303.124420,135.602890 303.000000,148.565689 303.000000,161.762100 
	C290.570923,161.762100 278.504181,161.762100 266.000000,161.762100 
	C266.000000,144.816696 266.157593,128.030014 265.943939,111.248047 
	C265.804230,100.274353 260.425201,91.522636 251.192001,88.961334 
	C237.478912,85.157303 223.218567,91.168015 218.086716,107.573784 
	C216.844696,111.544365 216.165146,115.839066 216.091858,119.999954 
	C215.848709,133.803970 216.000000,147.614929 216.000000,161.710846 
	C203.676254,161.710846 191.608841,161.710846 178.769623,161.710846 
	C178.769623,130.018005 178.769623,98.330513 178.769623,66.322128 
	C189.868835,66.322128 201.616791,66.322128 213.881699,66.322128 
	C214.377884,70.938004 214.890930,75.710655 215.485550,81.242271 
	C230.349457,63.759583 249.315659,60.423923 270.788300,64.001236 
z"/>
<path fill="#0F2D52" opacity="1.000000" stroke="none" 
	d="
M425.000000,94.146690 
	C425.000000,103.791786 424.758514,112.960571 425.059998,122.111458 
	C425.453156,134.044327 429.358490,139.676773 441.724609,138.997894 
	C446.301270,138.746658 450.876648,138.471771 456.000000,138.176056 
	C456.000000,142.087265 456.000000,146.037323 456.000000,149.987381 
	C456.000000,153.803528 456.000000,157.619675 456.000000,161.974319 
	C439.428314,164.684586 422.899353,166.289139 406.926697,160.762909 
	C394.833313,156.578842 388.404236,146.739197 388.082001,133.756134 
	C387.723724,119.319397 388.000000,104.866920 388.000000,90.167389 
	C380.312225,90.167389 373.029846,90.167389 365.374420,90.167389 
	C365.374420,82.193703 365.374420,74.458199 365.374420,66.285294 
	C372.502350,66.285294 379.907684,66.285294 388.000122,66.285294 
	C388.000122,60.623329 387.872253,55.363911 388.086121,50.118416 
	C388.142639,48.732449 388.928436,46.538330 389.928925,46.156906 
	C401.330383,41.810486 412.838409,37.743622 424.887848,33.396454 
	C424.887848,44.585209 424.887848,55.005207 424.887848,65.852081 
	C435.313538,65.852081 445.383057,65.852081 455.722778,65.852081 
	C455.722778,74.010010 455.722778,81.741096 455.722778,90.000267 
	C446.593750,90.000267 437.488434,90.132675 428.390808,89.925972 
	C425.348541,89.856850 424.608185,91.033592 425.000000,94.146690 
z"/>
<path fill="#0F2D52" opacity="1.000000" stroke="none" 
	d="
M560.905823,183.000000 
	C576.742188,184.326782 592.155334,185.151581 607.423767,187.106277 
	C626.909180,189.600815 646.447998,192.201248 665.648315,196.251480 
	C684.382568,200.203354 702.754211,205.914963 721.212585,211.111511 
	C728.010742,213.025391 734.571106,215.770508 741.305115,217.933426 
	C743.458069,218.624924 743.953064,219.028809 743.353699,221.617645 
	C742.551697,225.081848 743.155273,228.871460 743.155273,233.272491 
	C734.768066,230.399826 727.081055,227.176315 719.091248,225.141754 
	C695.647461,219.171890 672.198914,213.119644 648.525879,208.185730 
	C632.478210,204.841080 616.092529,202.938339 599.777161,201.113388 
	C585.747314,199.544067 571.610413,198.872467 557.506775,198.043671 
	C547.935364,197.481201 538.322144,196.800156 528.758423,197.112839 
	C509.820068,197.732025 490.817505,198.191605 471.995239,200.175934 
	C435.067017,204.069153 398.579712,210.657883 362.977722,221.539307 
	C358.346069,222.954910 357.047699,221.957245 357.000031,217.033646 
	C356.934631,210.284042 358.389496,208.510406 364.986877,206.991943 
	C384.805054,202.430557 404.566132,197.605194 424.449646,193.350937 
	C433.809479,191.348328 443.377808,190.255219 452.888458,189.037781 
	C466.970367,187.235168 481.070099,185.543152 495.192139,184.095596 
	C502.074615,183.390106 509.022400,183.117905 515.944702,183.046707 
	C530.767822,182.894241 545.593567,183.000000 560.905823,183.000000 
z"/>
<path fill="#0F2D52" opacity="1.000000" stroke="none" 
	d="
M91.900360,291.010559 
	C90.441246,291.559631 89.354698,292.063141 86.747162,293.271454 
	C94.131287,293.675995 98.199219,297.015686 99.740089,302.602509 
	C101.240967,308.044342 101.944221,313.706146 102.998207,319.271240 
	C103.628281,322.598114 104.259377,325.924744 104.961006,329.625977 
	C97.203346,329.625977 89.500664,329.625977 81.100540,329.625977 
	C80.121773,323.688507 79.079880,317.383087 78.043388,311.076782 
	C76.668549,302.711853 73.308098,302.871368 67.469536,302.138885 
	C62.247429,301.483734 56.878227,302.001038 51.144859,302.001038 
	C51.144859,311.315826 51.144859,320.385498 51.144859,329.723724 
	C43.322292,329.723724 35.925312,329.723724 28.262901,329.723724 
	C28.262901,304.968842 28.262901,280.249359 28.262901,255.000000 
	C42.898304,255.000000 57.495735,254.836166 72.085884,255.090286 
	C77.085716,255.177399 82.096069,256.145233 87.050568,257.004944 
	C94.705116,258.333191 100.553894,262.273987 101.868057,270.319641 
	C103.187202,278.395813 101.650429,285.782440 93.441887,290.054474 
	C93.010986,290.278717 92.660721,290.657898 91.900360,291.010559 
M78.973305,282.186340 
	C81.023697,276.840210 80.289055,273.258484 75.059509,272.267731 
	C67.292290,270.796234 59.195724,271.063202 51.318100,270.594910 
	C51.318100,276.691437 51.318100,281.748657 51.318100,286.999878 
	C57.433453,286.999878 63.285233,287.469086 69.010124,286.819702 
	C72.317131,286.444550 75.419418,284.264679 78.973305,282.186340 
z"/>
<path fill="#0F2D52" opacity="1.000000" stroke="none" 
	d="
M391.970398,314.000000 
	C395.442749,314.000000 398.420593,314.000000 401.698181,314.000000 
	C401.698181,319.294220 401.698181,324.359924 401.698181,329.716248 
	C380.337006,329.716248 358.941559,329.716248 337.272400,329.716248 
	C337.272400,304.979919 337.272400,280.252441 337.272400,255.261993 
	C358.375397,255.261993 379.437164,255.261993 400.749969,255.261993 
	C400.749969,260.400818 400.749969,265.466766 400.749969,270.969147 
	C386.898560,270.969147 373.163177,270.969147 359.217224,270.969147 
	C359.217224,275.342194 359.217224,279.293488 359.217224,283.680237 
	C372.139191,283.680237 385.207916,283.680237 398.637238,283.680237 
	C398.637238,289.162140 398.637238,294.234070 398.637238,299.745605 
	C385.795868,299.745605 372.726746,299.745605 359.330261,299.745605 
	C359.330261,304.570587 359.330261,308.971161 359.330261,314.000000 
	C369.958313,314.000000 380.717133,314.000000 391.970398,314.000000 
z"/>
<path fill="#0F2D52" opacity="1.000000" stroke="none" 
	d="
M353.000000,85.000488 
	C353.000000,110.793144 353.000000,136.085861 353.000000,161.688995 
	C340.728699,161.688995 328.667786,161.688995 316.302185,161.688995 
	C316.302185,130.052780 316.302185,98.337975 316.302185,66.311142 
	C328.271088,66.311142 340.332062,66.311142 353.000000,66.311142 
	C353.000000,72.313080 353.000000,78.406822 353.000000,85.000488 
z"/>
<path fill="#0F2D52" opacity="1.000000" stroke="none" 
	d="
M225.948273,327.006165 
	C215.841904,334.706299 195.951462,333.851562 187.956512,325.437408 
	C180.543472,317.635651 184.059982,303.746429 194.155197,299.958557 
	C202.863663,296.691010 211.838104,296.936646 220.850830,296.997253 
	C223.496170,297.015045 226.141724,297.000000 228.998627,297.000000 
	C229.021866,292.441284 227.509857,288.966370 223.268585,288.103668 
	C214.868973,286.395081 210.453766,288.329071 208.435226,293.878082 
	C201.826370,293.878082 195.186264,293.878082 188.565720,293.878082 
	C187.725586,288.523438 190.176025,283.896759 195.138077,280.970886 
	C205.827560,274.667816 217.452530,275.505798 229.061050,276.558746 
	C234.578232,277.059174 240.465317,277.822235 243.898346,282.642609 
	C246.606155,286.444702 249.402847,291.071472 249.726517,295.509460 
	C250.546921,306.758240 249.998901,318.106842 249.998901,329.706879 
	C243.341187,329.706879 236.927109,329.706879 230.145554,329.706879 
	C230.069031,328.030457 229.989670,326.291870 229.886353,324.028687 
	C228.506226,325.163879 227.415314,326.061188 225.948273,327.006165 
M208.139160,318.646118 
	C209.065125,318.911163 209.982620,319.211426 210.918365,319.435669 
	C218.752304,321.313049 228.343170,317.706848 228.807800,307.466370 
	C222.561447,308.079987 216.318558,308.182220 210.322449,309.450897 
	C205.863602,310.394318 205.058838,314.130981 208.139160,318.646118 
z"/>
<path fill="#0F2D52" opacity="1.000000" stroke="none" 
	d="
M536.399536,301.228729 
	C543.761902,297.383179 551.311890,296.713959 559.065674,296.972870 
	C563.541443,297.122375 568.026367,297.000000 572.704163,297.000000 
	C573.536194,292.773438 572.554504,289.602936 568.490662,288.220306 
	C561.775146,285.935516 555.354858,288.295074 552.601746,293.811951 
	C545.824585,293.811951 539.028564,293.811951 532.235046,293.811951 
	C532.219604,285.663422 537.266663,279.595306 547.354187,277.406281 
	C558.314636,275.027832 569.507751,274.779724 580.438110,278.039856 
	C589.267395,280.673248 594.349548,287.320282 594.056396,296.834381 
	C593.789795,305.487915 593.960571,314.156464 594.026794,322.817688 
	C594.044006,325.069733 594.390991,327.319214 594.601257,329.739380 
	C594.219666,329.798279 593.577332,329.981415 592.934326,329.983704 
	C586.786987,330.005463 580.639465,329.996674 574.160645,329.996674 
	C574.069092,328.026794 573.988525,326.291534 573.888916,324.148651 
	C563.343018,333.592957 551.467285,333.703644 539.014648,330.028748 
	C531.813782,327.903717 528.408569,322.281708 528.249146,315.527557 
	C528.116455,309.908417 530.126465,304.270508 536.399536,301.228729 
M568.358887,317.097260 
	C570.801636,314.629395 573.864075,312.442749 572.545776,307.561951 
	C566.833679,308.053406 561.194214,308.004059 555.857422,309.250488 
	C553.596069,309.778595 551.970276,313.027954 550.055603,315.040497 
	C551.743835,316.569580 553.401672,319.339569 555.126404,319.381866 
	C559.346252,319.485413 563.597107,318.328796 568.358887,317.097260 
z"/>
<path fill="#0F2D52" opacity="1.000000" stroke="none" 
	d="
M158.539001,314.000732 
	C165.260422,314.000092 171.537750,314.000092 177.815842,314.000092 
	C177.634857,321.237274 171.298019,329.129150 162.113907,330.774780 
	C150.333115,332.885681 138.413208,333.313812 126.759781,329.063507 
	C118.066078,325.892639 112.044876,318.014679 112.008240,308.862915 
	C111.979553,301.698029 111.485939,294.634155 116.151833,288.162720 
	C121.773224,280.365997 129.785904,277.074402 138.482819,276.265594 
	C145.507095,275.612335 152.796555,276.982452 159.884521,278.025085 
	C172.351212,279.858978 178.202240,291.718658 178.975937,301.793518 
	C179.141037,303.943481 179.000000,306.116974 179.000000,308.795715 
	C163.706345,308.795715 148.487915,308.795715 133.108871,308.795715 
	C133.169815,314.513092 136.065475,317.916534 140.466461,319.747620 
	C145.238113,321.732941 152.279526,319.663910 155.357590,316.155457 
	C156.110413,315.297394 157.174118,314.712097 158.539001,314.000732 
M152.811539,289.299622 
	C142.884399,285.852814 134.251709,288.251099 133.720840,297.738342 
	C141.423279,297.738342 149.134247,297.738342 158.442474,297.738342 
	C156.351196,294.516510 154.852615,292.207764 152.811539,289.299622 
z"/>
<path fill="#0F2D52" opacity="1.000000" stroke="none" 
	d="
M688.037720,276.000000 
	C694.881104,277.078186 701.651978,277.129700 707.514709,279.463043 
	C717.586487,283.471527 721.499268,292.326935 721.987915,302.800354 
	C722.073120,304.626495 722.000000,306.459991 722.000000,308.808563 
	C706.686951,308.808563 691.456726,308.808563 676.174438,308.808563 
	C676.872070,314.906647 680.252869,319.283569 684.468994,319.989044 
	C692.591553,321.348206 696.521118,319.831390 699.418640,314.176453 
	C706.523560,314.176453 713.654175,314.176453 720.783691,314.176453 
	C720.745056,322.054260 713.822998,329.109924 705.190857,330.730225 
	C693.414551,332.940735 681.483337,333.299988 669.821411,329.067230 
	C661.315247,325.979950 655.060303,317.757935 655.000610,308.813171 
	C654.952698,301.628937 654.768677,294.600342 659.195374,288.111877 
	C663.588623,281.672455 669.989563,279.030334 676.853821,277.110138 
	C680.258545,276.157715 683.979004,276.334229 688.037720,276.000000 
M690.460388,298.000000 
	C693.790710,298.000000 697.121033,298.000000 700.472717,298.000000 
	C699.283875,291.290588 696.103027,288.374451 690.587341,287.945099 
	C680.965149,287.196075 677.593994,291.028595 676.494873,298.000000 
	C680.836609,298.000000 685.158264,298.000000 690.460388,298.000000 
z"/>
<path fill="#0F2D52" opacity="1.000000" stroke="none" 
	d="
M416.958221,325.989471 
	C414.752502,321.926208 412.926666,317.916351 410.688629,313.001282 
	C418.273163,313.001282 424.412964,312.860931 430.535400,313.124023 
	C431.707855,313.174408 433.297943,314.581024 433.861115,315.760345 
	C435.965759,320.167480 447.583557,322.101379 450.242462,318.052734 
	C451.601410,315.983398 452.386200,312.839874 448.276001,311.996338 
	C441.632690,310.632935 434.926392,309.534729 428.347961,307.913727 
	C424.975861,307.082794 421.540405,305.807220 418.625641,303.957367 
	C410.792023,298.985748 412.085693,283.225220 423.093231,279.087433 
	C434.755981,274.703339 446.858673,274.954407 458.863800,277.439636 
	C467.237122,279.173004 471.357239,284.915161 471.585754,293.680298 
	C465.117493,293.680298 458.394806,293.680298 451.571167,293.680298 
	C448.491882,288.274445 444.765900,286.462738 438.942139,288.164337 
	C437.454437,288.598999 436.316803,290.231812 435.018372,291.314178 
	C436.154694,292.540283 437.095673,294.495544 438.462372,294.861694 
	C443.439331,296.195068 448.552704,297.028412 453.626617,297.987030 
	C456.340485,298.499786 459.139862,298.656067 461.794006,299.369812 
	C468.468140,301.164642 472.537964,306.050598 472.998962,312.435791 
	C473.502014,319.403259 470.155670,326.380676 463.531921,328.623169 
	C449.806213,333.270050 435.758118,333.927521 421.849457,328.926422 
	C420.211792,328.337585 418.835541,327.021729 416.958221,325.989471 
z"/>
<path fill="#0F2D52" opacity="1.000000" stroke="none" 
	d="
M526.000000,284.977325 
	C526.000000,287.103790 526.000000,288.749786 526.000000,290.831665 
	C520.378906,290.831665 514.969482,290.831665 509.016815,290.831665 
	C509.016815,297.693970 508.744965,304.144501 509.113159,310.558289 
	C509.355164,314.773651 511.788086,317.350403 516.524902,317.036469 
	C519.487000,316.840149 522.472717,316.999939 525.480286,316.999939 
	C525.697449,317.682007 525.972229,318.130859 525.961914,318.573090 
	C525.653198,331.843506 528.900818,331.172638 513.720947,330.906982 
	C508.407013,330.813995 502.820770,330.487762 497.876678,328.774109 
	C490.545227,326.233063 488.104797,319.724335 488.012726,312.338715 
	C487.927551,305.507660 487.950165,298.675293 487.910492,291.843567 
	C487.909760,291.715729 487.724457,291.588928 487.286255,291.026672 
	C483.900665,291.026672 480.150574,291.026672 476.212433,291.026672 
	C476.212433,286.649872 476.212433,282.696899 476.212433,278.305420 
	C479.814148,278.305420 483.553741,278.305420 487.733154,278.305420 
	C487.733154,274.481354 487.733154,271.070312 487.733154,267.587280 
	C494.838013,264.979675 501.579529,262.505402 508.782776,259.861664 
	C508.782776,265.898407 508.782776,271.624756 508.782776,277.784302 
	C514.573975,277.784302 519.980652,277.784302 526.000000,277.784302 
	C526.000000,280.306824 526.000000,282.401855 526.000000,284.977325 
z"/>
<path fill="#0F2D52" opacity="1.000000" stroke="none" 
	d="
M648.752441,278.043213 
	C649.601501,282.128357 649.972107,286.177917 650.384827,290.686584 
	C644.865112,290.686584 639.793640,290.686584 634.018921,290.686584 
	C634.018921,297.997284 633.701233,304.924957 634.154602,311.801819 
	C634.377258,315.179047 637.080383,317.069733 640.734497,317.009430 
	C643.687195,316.960632 646.641418,316.999512 649.196655,316.999512 
	C649.692566,317.529877 649.896057,317.643982 649.905273,317.771973 
	C650.855408,330.999939 650.853760,331.081543 637.703491,330.952911 
	C633.470520,330.911530 629.067810,330.951691 625.049194,329.843475 
	C616.446899,327.471283 613.311646,321.340698 613.050049,313.304932 
	C612.813171,306.029877 613.000000,298.741089 613.000000,291.036377 
	C608.908569,291.036377 605.163330,291.036377 601.220581,291.036377 
	C601.220581,286.545624 601.220581,282.482269 601.220581,278.164673 
	C605.018005,278.164673 608.633728,278.164673 612.696655,278.164673 
	C612.696655,274.533142 612.696655,271.134216 612.696655,267.605499 
	C619.774597,265.003571 626.501038,262.530884 633.677124,259.892914 
	C633.677124,265.840057 633.677124,271.540894 633.677124,278.007568 
	C638.791016,278.007568 643.532532,278.007568 648.752441,278.043213 
z"/>
<path fill="#0F2D52" opacity="1.000000" stroke="none" 
	d="
M260.022644,389.112000 
	C256.428864,397.441895 252.959213,405.430542 249.182877,413.271515 
	C248.581177,414.520844 246.673035,415.710175 245.245682,415.877747 
	C241.969193,416.262390 238.616699,415.999542 235.529816,415.999542 
	C230.558578,405.308014 225.728653,394.920410 220.284332,383.211456 
	C220.284332,394.832458 220.284332,405.099884 220.284332,415.680664 
	C217.072449,415.680664 214.338501,415.680664 211.298126,415.680664 
	C211.298126,402.386383 211.298126,388.982697 211.298126,375.003723 
	C216.180481,375.003723 221.127792,374.821381 226.040939,375.149811 
	C227.086105,375.219696 228.338562,376.992798 228.931992,378.247681 
	C233.267090,387.415070 237.458389,396.650482 242.136795,406.825043 
	C246.744110,396.648315 251.047836,387.600739 254.889526,378.361053 
	C255.961990,375.781677 257.043335,374.807037 259.765778,374.944916 
	C263.918884,375.155212 268.090515,375.000000 272.627014,375.000000 
	C272.627014,388.479401 272.627014,401.879028 272.627014,415.640320 
	C269.816895,415.640320 266.747742,415.640320 263.291168,415.640320 
	C263.291168,405.454071 263.291168,395.033264 263.291168,383.098480 
	C261.712830,385.832977 260.879089,387.277466 260.022644,389.112000 
z"/>
<path fill="#0F2D52" opacity="1.000000" stroke="none" 
	d="
M274.979431,255.000000 
	C278.113983,255.000000 280.756500,255.000000 283.698486,255.000000 
	C283.698486,279.947632 283.698486,304.662231 283.698486,329.688965 
	C277.397064,329.688965 270.999176,329.688965 264.298828,329.688965 
	C264.298828,305.047150 264.298828,280.332520 264.298828,255.000000 
	C267.626251,255.000000 271.056854,255.000000 274.979431,255.000000 
z"/>
<path fill="#0F2D52" opacity="1.000000" stroke="none" 
	d="
M482.997559,412.826538 
	C483.190674,414.057037 483.378845,414.856018 483.606598,415.823212 
	C482.532349,415.880615 481.415436,415.985992 480.297943,415.992615 
	C472.673401,416.037811 472.673370,416.031128 471.998383,408.252808 
	C471.519928,402.739227 468.766327,400.484650 461.604462,400.032532 
	C458.632416,399.844910 455.638611,400.001373 452.225861,400.001373 
	C452.225861,405.221497 452.225861,410.292206 452.225861,415.680054 
	C448.748535,415.680054 445.682312,415.680054 442.302826,415.680054 
	C442.302826,402.402283 442.302826,389.010345 442.302826,374.577911 
	C452.887665,375.042236 463.530609,375.465546 474.168243,375.995117 
	C479.076447,376.239471 482.311859,379.121399 482.858337,383.753723 
	C483.524506,389.401093 483.083496,393.824249 476.300537,396.384125 
	C480.108978,398.797028 482.491150,401.863434 482.079865,406.687500 
	C481.921021,408.550537 482.661743,410.490234 482.997559,412.826538 
M459.503143,393.000000 
	C462.156860,392.996552 465.023773,393.616760 467.400848,392.804047 
	C469.528564,392.076660 471.998505,390.039581 472.604248,388.056915 
	C472.955048,386.908722 470.075043,383.449982 468.382263,383.246094 
	C463.052307,382.604156 457.596191,383.009583 452.312347,383.009583 
	C452.312347,386.681976 452.312347,389.741058 452.312347,393.000000 
	C454.594788,393.000000 456.566437,393.000000 459.503143,393.000000 
z"/>
<path fill="#0F2D52" opacity="1.000000" stroke="none" 
	d="
M354.956055,50.754623 
	C353.185120,51.489948 351.451599,51.956276 349.715576,51.965904 
	C337.945984,52.031170 326.175842,52.000000 314.205292,52.000000 
	C314.205292,42.968121 314.205292,34.359653 314.205292,25.375069 
	C327.467102,25.375069 340.857544,25.375069 354.992340,25.375069 
	C354.992340,33.469143 354.992340,41.871735 354.956055,50.754623 
z"/>
<path fill="#0F2D52" opacity="1.000000" stroke="none" 
	d="
M132.854980,403.383911 
	C128.622223,412.309845 121.891708,416.347382 112.363350,416.043365 
	C105.412399,415.821564 98.448685,416.000000 91.247833,416.000000 
	C91.247833,402.267517 91.247833,388.876678 91.247833,374.555634 
	C100.382652,375.038940 109.385399,375.444275 118.378036,376.010132 
	C128.326248,376.636108 135.890396,387.742126 133.065338,400.004669 
	C132.845810,400.957550 132.996506,401.995728 132.854980,403.383911 
M116.839302,384.325165 
	C111.725815,383.706787 106.612320,383.088379 101.202866,382.434174 
	C101.202866,391.811432 101.202866,400.192047 101.202866,409.384552 
	C105.616859,408.904785 109.802536,408.647583 113.913734,407.950897 
	C118.622894,407.152924 122.572304,403.042267 122.922798,398.341797 
	C123.315910,393.069611 123.239815,387.733246 116.839302,384.325165 
z"/>
<path fill="#0F2D52" opacity="1.000000" stroke="none" 
	d="
M558.600586,425.995392 
	C551.226013,426.006317 544.192810,426.595490 537.340637,425.738251 
	C533.923767,425.310822 531.170776,422.030701 532.191528,417.300049 
	C535.985962,417.064758 539.476746,416.057007 543.026611,419.911926 
	C544.646240,421.670746 549.814026,421.434692 552.729065,420.359253 
	C555.477295,419.345428 558.287415,416.470825 556.702332,412.399902 
	C550.656128,416.316132 544.239990,417.799927 537.610168,413.998108 
	C531.541138,410.517914 528.705139,404.112671 530.219421,398.450043 
	C532.287903,390.714905 537.906616,385.321411 545.313599,386.245605 
	C552.445435,387.135468 559.457947,388.004456 565.998657,386.801910 
	C565.998657,397.569580 566.165710,407.750122 565.918335,417.920593 
	C565.816040,422.126007 562.654968,424.428375 558.600586,425.995392 
M542.470337,406.979980 
	C545.386047,410.107239 549.459961,410.662323 552.391235,408.535034 
	C554.744812,406.826996 556.661560,402.935364 556.634705,400.032532 
	C556.613464,397.735718 553.747070,394.313965 551.412109,393.505127 
	C548.948364,392.651611 544.721436,393.343842 542.864563,395.075897 
	C539.727234,398.002319 538.782837,402.338745 542.470337,406.979980 
z"/>
<path fill="#0F2D52" opacity="1.000000" stroke="none" 
	d="
M171.287842,384.787750 
	C164.169800,379.284180 155.178497,381.510437 151.448425,388.300507 
	C147.595367,395.314453 150.749908,405.527985 156.380005,408.193878 
	C163.610092,411.617371 170.524063,409.948273 173.767059,402.161835 
	C177.092712,402.161835 180.398743,402.161835 183.958710,402.161835 
	C183.080353,408.860626 180.518311,414.017059 173.604538,415.722382 
	C165.545303,417.710297 157.360672,418.442444 149.632309,414.778564 
	C143.687393,411.960236 140.543518,406.985870 139.902328,400.151672 
	C139.162628,392.267487 139.987274,385.424438 145.967270,379.301056 
	C152.903931,372.198212 172.396286,372.176514 179.437225,379.177460 
	C181.639938,381.367645 182.451416,384.957031 183.350311,388.412140 
	C178.899338,388.045776 173.682678,391.842285 171.287842,384.787750 
z"/>
<path fill="#0F2D52" opacity="1.000000" stroke="none" 
	d="
M493.765991,390.726166 
	C501.914764,384.618835 510.542297,384.737579 518.857178,388.594788 
	C524.680542,391.296204 526.135376,397.234406 526.024536,403.761597 
	C517.132690,403.761597 508.366180,403.761597 499.532623,403.761597 
	C500.903076,410.475952 506.165436,412.741455 512.445435,410.230804 
	C516.226379,408.719208 520.395752,408.179108 524.809204,407.100067 
	C525.048035,414.828278 519.446838,415.884155 515.450928,416.531097 
	C510.079651,417.400726 504.312683,416.754639 498.850037,415.899750 
	C491.796661,414.795929 488.184967,407.301605 489.822754,399.670746 
	C490.469604,396.656982 492.240021,393.884338 493.765991,390.726166 
M512.111267,393.032135 
	C505.438904,391.170959 502.246002,392.453888 500.312988,397.877625 
	C505.385468,397.877625 510.414307,397.877625 516.089783,397.877625 
	C514.823975,396.105011 513.832397,394.716461 512.111267,393.032135 
z"/>
<path fill="#0F2D52" opacity="1.000000" stroke="none" 
	d="
M284.381836,413.756927 
	C279.690247,408.369232 278.360443,397.736816 281.589111,392.965607 
	C285.473755,387.225067 295.115479,384.935242 301.509399,386.317535 
	C313.208771,388.846832 316.750793,393.503265 315.587494,403.834869 
	C307.009766,403.834869 298.399139,403.834869 289.784485,403.834869 
	C289.941925,411.099976 296.591858,412.101532 302.341156,410.251526 
	C306.243530,408.995789 310.278229,408.151215 314.609222,407.030823 
	C315.508087,413.248718 311.610077,414.912231 308.302612,415.715515 
	C300.371857,417.641602 292.252747,418.761047 284.381836,413.756927 
M297.597137,392.004517 
	C294.416260,392.948273 291.029236,393.631470 290.082184,397.633698 
	C295.521240,397.633698 300.685181,397.633698 305.849152,397.633698 
	C306.052307,397.133636 306.255493,396.633545 306.458679,396.133484 
	C303.771729,394.757172 301.084747,393.380829 297.597137,392.004517 
z"/>
<path fill="#0F2D52" opacity="1.000000" stroke="none" 
	d="
M379.164001,410.467987 
	C374.832367,400.048706 377.720184,392.590027 383.931641,388.897552 
	C390.390717,385.057831 397.727020,385.290894 405.117737,387.461273 
	C412.998657,389.775604 415.450104,397.744568 414.973938,403.854034 
	C414.437164,410.741211 408.964355,416.538788 402.053833,416.891205 
	C397.176788,417.139893 392.125244,416.955048 387.390076,415.896667 
	C384.466919,415.243347 381.991516,412.586761 379.164001,410.467987 
M388.308319,406.820801 
	C389.017578,407.518555 389.692230,408.256195 390.442108,408.907166 
	C393.709351,411.743622 397.384247,411.863281 400.788605,409.593414 
	C404.141144,407.358002 406.068176,403.849274 404.807922,399.798706 
	C403.573425,395.830902 401.406036,392.681610 396.176270,392.906464 
	C388.697754,393.227966 385.678986,397.776855 388.308319,406.820801 
z"/>
<path fill="#0F2D52" opacity="1.000000" stroke="none" 
	d="
M592.231812,391.276428 
	C600.401123,384.032074 612.927795,385.095734 620.859985,389.469543 
	C624.929565,391.713501 627.285278,400.525482 625.934937,406.080688 
	C624.672913,411.272705 618.973999,416.641205 613.339661,416.870941 
	C607.960388,417.090302 602.410034,416.935699 597.172363,415.825348 
	C590.876770,414.490692 587.552002,407.417206 588.687927,399.899689 
	C589.123535,397.017242 590.835815,394.327759 592.231812,391.276428 
M613.940308,408.360626 
	C614.501648,407.203766 615.268799,406.100433 615.586121,404.880096 
	C616.590820,401.016357 616.665039,396.679749 612.920227,394.772339 
	C610.104553,393.338196 605.617126,392.786926 602.937012,394.067505 
	C599.234558,395.836517 596.842285,399.558533 598.862244,404.660583 
	C601.456604,411.213623 605.558655,412.619171 613.940308,408.360626 
z"/>
<path fill="#0F2D52" opacity="1.000000" stroke="none" 
	d="
M665.000000,407.950317 
	C665.000000,410.750946 665.000000,413.061951 665.000000,415.685608 
	C662.065186,415.685608 659.333679,415.685608 656.000000,415.685608 
	C656.000000,411.032135 656.008423,406.269714 655.997864,401.507355 
	C655.984802,395.622894 654.050232,393.062592 649.595215,393.000977 
	C645.474792,392.944000 641.183228,397.044891 641.035339,401.471558 
	C640.880554,406.105713 641.000793,410.749084 641.000793,415.693237 
	C638.051941,415.693237 635.320374,415.693237 631.791931,415.693237 
	C631.791931,406.329224 631.791931,396.876953 631.791931,386.427399 
	C634.779480,387.119537 637.960876,388.336578 641.180847,388.449219 
	C643.711792,388.537750 646.293396,387.273804 648.847229,386.590912 
	C656.260254,384.608551 666.758606,389.212250 665.081787,398.489014 
	C664.557434,401.389740 665.000000,404.465210 665.000000,407.950317 
z"/>
<path fill="#0F2D52" opacity="1.000000" stroke="none" 
	d="
M340.988708,394.000000 
	C339.204193,394.000000 337.893402,394.000000 336.000000,394.000000 
	C336.000000,395.831238 336.002350,397.432098 335.999603,399.032959 
	C335.982117,409.289246 335.981750,409.289246 345.617615,410.397583 
	C346.294342,416.592224 346.003693,416.940338 340.041473,416.997467 
	C338.375214,417.013428 336.664856,417.242950 335.050293,416.953308 
	C329.676910,415.989380 326.286743,413.954071 326.906189,408.134155 
	C327.378448,403.697479 327.000000,399.170258 327.000000,394.222412 
	C324.454437,394.097778 322.048248,393.979950 319.321625,393.846466 
	C319.321625,391.758118 319.321625,389.687805 319.321625,387.186584 
	C321.592102,387.186584 324.004730,387.186584 326.936096,387.186584 
	C325.309448,379.359711 331.020844,380.011322 335.799438,378.932434 
	C335.799438,381.535492 335.799438,383.960724 335.799438,386.807739 
	C339.230316,386.807739 342.314697,386.807739 345.698242,386.807739 
	C345.698242,389.290558 345.698242,391.358063 345.698242,393.773865 
	C344.348511,393.845917 342.905457,393.922974 340.988708,394.000000 
z"/>
<path fill="#0F2D52" opacity="1.000000" stroke="none" 
	d="
M351.999878,392.316467 
	C351.736786,390.432556 351.473816,389.015320 351.016907,386.552948 
	C355.208344,387.195251 359.168030,388.301361 363.118652,388.269836 
	C367.236969,388.237000 371.346527,387.107178 375.786377,386.405334 
	C375.786377,389.801361 375.786377,392.222870 375.786377,394.353760 
	C373.050415,394.569672 370.433472,394.615143 367.871002,395.012207 
	C362.656006,395.820282 361.348480,399.814911 361.052399,404.224487 
	C360.799347,407.993469 361.000061,411.792938 361.000061,415.783386 
	C357.877258,415.783386 355.149811,415.783386 352.000000,415.783386 
	C352.000000,407.994812 352.000000,400.388977 351.999878,392.316467 
z"/>
<path fill="#0F2D52" opacity="1.000000" stroke="none" 
	d="
M574.000000,406.959930 
	C574.000000,400.170776 574.000000,393.876862 574.000000,387.293091 
	C576.970398,387.293091 579.699463,387.293091 582.719299,387.293091 
	C582.719299,396.636230 582.719299,406.025055 582.719299,415.708191 
	C580.024353,415.708191 577.295471,415.708191 574.000000,415.708191 
	C574.000000,412.995117 574.000000,410.225128 574.000000,406.959930 
z"/>
<path fill="#0F2D52" opacity="1.000000" stroke="none" 
	d="
M580.818298,375.003998 
	C582.112793,377.345276 582.940125,379.683289 583.988586,382.646423 
	C579.850952,382.646423 576.783264,382.646423 573.354492,382.646423 
	C573.354492,380.492004 573.354492,378.091522 573.354492,375.000702 
	C575.515869,375.000702 577.933472,375.000702 580.818298,375.003998 
z"/>
<path fill="#0F2D52" opacity="1.000000" stroke="none" 
	d="
M371.546692,251.564819 
	C372.089203,251.847076 372.414185,252.287979 372.739166,252.728882 
	C372.204254,252.698502 371.669342,252.668121 371.031189,252.360229 
	C371.061707,251.962952 371.195435,251.843201 371.546692,251.564819 
z"/>
<path fill="#FFFFFF" opacity="1.000000" stroke="none" 
	d="
M633.999878,118.049561 
	C631.270630,100.141006 643.610229,83.991333 662.846802,85.964249 
	C675.044373,87.215240 682.350952,92.784760 686.046082,104.091995 
	C690.063171,116.384773 688.435364,127.281021 678.333862,136.186188 
	C669.579285,143.903976 659.427246,144.741287 649.308777,140.514771 
	C640.009827,136.630585 635.073792,128.633942 633.999878,118.049561 
z"/>
<path fill="#FFFFFF" opacity="1.000000" stroke="none" 
	d="
M543.988892,94.317520 
	C544.722229,97.320129 545.438721,99.923660 546.226440,102.785889 
	C530.619629,102.785889 515.424255,102.785889 500.125458,102.785889 
	C501.761505,93.459641 506.133392,86.238785 515.527039,84.152626 
	C526.689270,81.673698 537.148926,82.944397 543.988892,94.317520 
z"/>
<path fill="#FFFFFF" opacity="1.000000" stroke="none" 
	d="
M78.793571,282.541687 
	C75.419418,284.264679 72.317131,286.444550 69.010124,286.819702 
	C63.285233,287.469086 57.433453,286.999878 51.318100,286.999878 
	C51.318100,281.748657 51.318100,276.691437 51.318100,270.594910 
	C59.195724,271.063202 67.292290,270.796234 75.059509,272.267731 
	C80.289055,273.258484 81.023697,276.840210 78.793571,282.541687 
z"/>
<path fill="#FFFFFF" opacity="1.000000" stroke="none" 
	d="
M207.858322,318.348206 
	C205.058838,314.130981 205.863602,310.394318 210.322449,309.450897 
	C216.318558,308.182220 222.561447,308.079987 228.807800,307.466370 
	C228.343170,317.706848 218.752304,321.313049 210.918365,319.435669 
	C209.982620,319.211426 209.065125,318.911163 207.858322,318.348206 
z"/>
<path fill="#FFFFFF" opacity="1.000000" stroke="none" 
	d="
M568.097168,317.388306 
	C563.597107,318.328796 559.346252,319.485413 555.126404,319.381866 
	C553.401672,319.339569 551.743835,316.569580 550.055603,315.040527 
	C551.970276,313.027954 553.596069,309.778595 555.857422,309.250488 
	C561.194214,308.004059 566.833679,308.053406 572.545776,307.561951 
	C573.864075,312.442749 570.801636,314.629395 568.097168,317.388306 
z"/>
<path fill="#FFFFFF" opacity="1.000000" stroke="none" 
	d="
M153.082779,289.599304 
	C154.852615,292.207764 156.351196,294.516510 158.442474,297.738342 
	C149.134247,297.738342 141.423279,297.738342 133.720840,297.738342 
	C134.251709,288.251099 142.884399,285.852814 153.082779,289.599304 
z"/>
<path fill="#FFFFFF" opacity="1.000000" stroke="none" 
	d="
M689.970093,298.000000 
	C685.158264,298.000000 680.836609,298.000000 676.494873,298.000000 
	C677.593994,291.028595 680.965149,287.196075 690.587341,287.945099 
	C696.103027,288.374451 699.283875,291.290588 700.472717,298.000000 
	C697.121033,298.000000 693.790710,298.000000 689.970093,298.000000 
z"/>
<path fill="#FFFFFF" opacity="1.000000" stroke="none" 
	d="
M459.020630,393.000000 
	C456.566437,393.000000 454.594788,393.000000 452.312347,393.000000 
	C452.312347,389.741058 452.312347,386.681976 452.312347,383.009583 
	C457.596191,383.009583 463.052307,382.604156 468.382263,383.246094 
	C470.075043,383.449982 472.955048,386.908722 472.604248,388.056915 
	C471.998505,390.039581 469.528564,392.076660 467.400848,392.804047 
	C465.023773,393.616760 462.156860,392.996552 459.020630,393.000000 
z"/>
<path fill="#FFFFFF" opacity="1.000000" stroke="none" 
	d="
M117.127220,384.608521 
	C123.239815,387.733246 123.315910,393.069611 122.922798,398.341797 
	C122.572304,403.042267 118.622894,407.152924 113.913734,407.950897 
	C109.802536,408.647583 105.616859,408.904785 101.202866,409.384552 
	C101.202866,400.192047 101.202866,391.811432 101.202866,382.434174 
	C106.612320,383.088379 111.725815,383.706787 117.127220,384.608521 
z"/>
<path fill="#FFFFFF" opacity="1.000000" stroke="none" 
	d="
M542.202454,406.689758 
	C538.782837,402.338745 539.727234,398.002319 542.864563,395.075897 
	C544.721436,393.343842 548.948364,392.651611 551.412109,393.505127 
	C553.747070,394.313965 556.613464,397.735718 556.634705,400.032532 
	C556.661560,402.935364 554.744812,406.826996 552.391235,408.535034 
	C549.459961,410.662323 545.386047,410.107239 542.202454,406.689758 
z"/>
<path fill="#FFFFFF" opacity="1.000000" stroke="none" 
	d="
M512.476074,393.179993 
	C513.832397,394.716461 514.823975,396.105011 516.089783,397.877625 
	C510.414307,397.877625 505.385468,397.877625 500.312988,397.877625 
	C502.246002,392.453888 505.438904,391.170959 512.476074,393.179993 
z"/>
<path fill="#FFFFFF" opacity="1.000000" stroke="none" 
	d="
M297.997467,392.004517 
	C301.084747,393.380829 303.771729,394.757172 306.458679,396.133484 
	C306.255493,396.633545 306.052307,397.133636 305.849152,397.633698 
	C300.685181,397.633698 295.521240,397.633698 290.082184,397.633698 
	C291.029236,393.631470 294.416260,392.948273 297.997467,392.004517 
z"/>
<path fill="#FFFFFF" opacity="1.000000" stroke="none" 
	d="
M388.168945,406.446533 
	C385.678986,397.776855 388.697754,393.227966 396.176270,392.906464 
	C401.406036,392.681610 403.573425,395.830902 404.807922,399.798706 
	C406.068176,403.849274 404.141144,407.358002 400.788605,409.593414 
	C397.384247,411.863281 393.709351,411.743622 390.442108,408.907166 
	C389.692230,408.256195 389.017578,407.518555 388.168945,406.446533 
z"/>
<path fill="#FFFFFF" opacity="1.000000" stroke="none" 
	d="
M613.654236,408.649078 
	C605.558655,412.619171 601.456604,411.213623 598.862244,404.660583 
	C596.842285,399.558533 599.234558,395.836517 602.937012,394.067505 
	C605.617126,392.786926 610.104553,393.338196 612.920227,394.772339 
	C616.665039,396.679749 616.590820,401.016357 615.586121,404.880096 
	C615.268799,406.100433 614.501648,407.203766 613.654236,408.649078 
z"/>
</svg>